<?xml version="1.0" standalone="no"?>
<!DOCTYPE svg PUBLIC "-//W3C//DTD SVG 20010904//EN"
 "http://www.w3.org/TR/2001/REC-SVG-20010904/DTD/svg10.dtd">
<svg version="1.0" xmlns="http://www.w3.org/2000/svg"
 width="512.000000pt" height="512.000000pt" viewBox="0 0 512.000000 512.000000"
 preserveAspectRatio="xMidYMid meet">

<g transform="translate(0.000000,512.000000) scale(0.100000,-0.100000)"
fill="#000000" stroke="none">
<path d="M0 2560 l0 -2560 2560 0 2560 0 0 2560 0 2560 -2560 0 -2560 0 0
-2560z m4024 1028 c39 -39 69 -115 86 -215 l12 -73 50 0 c54 0 88 -13 88 -35
0 -21 -19 -29 -80 -35 l-55 -5 -3 -205 c-3 -212 -8 -239 -44 -225 -25 10 -28
36 -28 243 l0 192 -56 0 c-50 0 -55 -2 -48 -17 4 -10 9 -39 12 -64 3 -38 -1
-51 -22 -76 -14 -17 -42 -38 -62 -48 l-36 -17 24 -26 c62 -67 262 -298 353
-407 143 -170 197 -244 191 -258 -6 -17 -696 680 -696 704 0 16 8 19 46 19
118 0 184 100 114 170 -17 17 -34 20 -120 20 l-100 0 0 -215 c0 -136 -4 -216
-10 -216 -5 -1 -16 -2 -22 -3 -10 -1 -14 51 -18 214 l-5 215 -107 3 c-108 3
-108 3 -108 -21 0 -23 3 -24 48 -20 55 6 96 -19 118 -73 29 -70 6 -169 -48
-203 -27 -17 -33 -8 -15 21 28 42 39 106 27 144 -18 53 -74 72 -112 37 -16
-14 -18 -34 -18 -168 0 -143 -1 -153 -20 -158 -27 -7 -37 9 -45 80 l-7 62 -33
-16 c-19 -9 -43 -13 -57 -10 -36 10 -91 49 -105 77 -19 37 -16 127 4 161 31
52 125 77 169 44 28 -21 34 -18 34 15 l0 31 -127 -3 c-126 -3 -127 -3 -134
-28 -4 -14 -7 -109 -8 -212 -1 -180 -2 -187 -22 -193 -40 -13 -44 6 -47 225
l-3 210 -77 0 c-75 -1 -76 -1 -51 -17 46 -28 49 -43 51 -229 1 -184 -5 -210
-40 -188 -15 10 -18 34 -22 176 -4 119 -9 170 -19 182 -19 23 -65 20 -97 -7
-27 -24 -27 -24 -32 -186 -5 -169 -11 -191 -47 -161 -12 10 -15 49 -15 221 l0
209 -150 0 -150 0 0 -35 c0 -19 3 -35 6 -35 4 0 22 14 41 30 65 58 145 35 188
-54 47 -96 32 -217 -36 -288 -30 -31 -43 -38 -75 -38 -39 0 -81 21 -97 47 -21
34 -27 4 -27 -130 0 -109 -3 -148 -14 -163 -14 -17 -16 -18 -31 -3 -14 14 -17
55 -18 340 l-2 324 -102 3 c-99 3 -103 2 -103 -19 0 -11 12 -30 26 -42 43 -33
54 -75 54 -201 0 -121 7 -141 41 -110 18 16 19 16 19 -9 0 -30 -32 -57 -68
-57 -12 0 -34 11 -48 25 l-24 24 -36 -24 c-42 -28 -79 -31 -129 -11 -39 17
-57 45 -58 92 -1 49 27 72 130 110 l88 32 -1 38 c-2 47 -32 74 -81 74 -41 0
-91 -26 -99 -52 -6 -19 -24 -25 -24 -8 0 18 27 64 46 81 11 9 36 22 57 29 56
18 35 30 -53 30 -58 0 -83 4 -94 16 -9 8 -16 19 -16 23 0 29 31 31 432 31
l407 0 3 141 c3 121 6 143 20 153 9 5 21 7 25 2 4 -4 10 -71 13 -149 l5 -142
571 -3 571 -2 7 62 c11 91 45 185 81 224 40 42 58 43 99 2z m-2620 -163 c102
-27 111 -34 114 -88 2 -27 -1 -47 -7 -47 -6 0 -36 13 -68 29 -32 17 -78 34
-103 40 -61 14 -189 14 -231 -1 -113 -38 -174 -130 -174 -258 1 -138 70 -223
209 -257 60 -14 80 -15 154 -4 123 17 122 16 119 109 l-2 77 -102 3 -103 3 0
34 0 35 155 0 155 0 0 -40 c0 -35 3 -40 24 -40 72 0 124 52 111 111 -9 40 -46
57 -144 65 -76 6 -82 9 -79 28 3 20 9 21 93 20 50 0 107 -6 127 -13 109 -36
118 -170 15 -226 -21 -11 -36 -24 -34 -30 2 -5 51 -50 110 -100 141 -120 586
-547 587 -562 0 -31 -12 -22 -271 197 -101 85 -199 167 -219 181 -19 14 -75
64 -125 111 -130 123 -171 158 -183 158 -7 0 -12 -29 -14 -72 l-3 -72 -75 -24
c-91 -29 -250 -40 -330 -23 -184 38 -280 151 -280 330 0 188 101 303 300 341
60 12 201 4 274 -15z m1640 -7 c14 -22 -3 -72 -27 -76 -26 -5 -43 41 -28 74
12 28 37 29 55 2z m-1449 -1338 c-11 -5 -14 -9 -6 -9 10 -1 11 -4 2 -15 -10
-11 -8 -15 6 -19 14 -4 13 -5 -4 -6 -19 -1 -23 4 -23 29 0 25 4 30 23 29 21 0
21 -1 2 -9z m93 -2 c15 -15 16 -32 2 -23 -5 3 -10 -1 -10 -9 0 -9 -4 -16 -8
-16 -5 0 -8 14 -8 30 0 32 5 37 24 18z m28 -46 c-11 -10 -14 3 -8 33 l7 30 3
-28 c2 -16 1 -31 -2 -35z m98 37 c14 12 16 10 16 -13 0 -14 -4 -26 -10 -26 -5
0 -10 5 -10 10 0 14 -27 12 -33 -2 -3 -7 -6 2 -6 21 -1 32 0 33 13 16 12 -16
16 -17 30 -6z m104 -4 c7 -14 12 -27 12 -28 0 -1 -13 -2 -29 -2 -26 0 -28 2
-19 28 12 34 21 34 36 2z m106 -5 c4 0 4 5 1 10 -3 6 -1 10 4 10 6 0 11 -11
11 -25 0 -29 -12 -32 -31 -9 -12 14 -14 14 -20 -3 -6 -13 -8 -9 -8 16 -1 32 0
33 17 18 10 -10 22 -17 26 -17z m89 20 c-13 -5 -23 -14 -23 -20 0 -6 10 -15
23 -20 22 -9 22 -9 1 -9 -12 -1 -25 6 -28 15 -8 20 11 44 33 43 11 0 9 -3 -6
-9z m97 0 c-14 -4 -20 -8 -13 -9 7 -1 10 -7 7 -15 -3 -8 2 -16 13 -19 12 -3 9
-5 -9 -6 -25 -1 -28 3 -28 29 0 26 3 30 28 29 l27 -1 -25 -8z m161 1 c8 10 8
7 4 -11 -11 -40 -20 -42 -32 -9 -10 27 -10 29 3 18 13 -10 17 -10 25 2z m114
-21 c0 -18 -6 -26 -23 -28 -24 -4 -38 18 -28 44 3 9 15 14 28 12 17 -2 23 -10
23 -28z m80 -20 c8 0 16 10 18 23 3 19 4 19 3 -3 -1 -18 -7 -26 -23 -28 -20
-3 -23 1 -22 30 2 30 2 31 6 6 2 -16 10 -28 18 -28z m123 21 c-1 -21 -6 -27
-13 -21 -7 6 -16 5 -23 -2 -9 -9 -12 -5 -12 20 0 28 4 32 25 32 22 0 25 -4 23
-29z m145 19 c-13 -5 -23 -16 -23 -24 0 -8 10 -17 23 -19 l22 -4 -23 -2 c-24
-1 -38 20 -28 44 3 8 16 15 28 14 l23 0 -22 -9z m112 -22 c1 -29 -10 -37 -18
-15 -4 9 -8 8 -16 -3 -8 -12 -11 -8 -11 18 0 29 3 33 23 30 16 -2 22 -10 22
-30z m80 22 c-11 -5 -14 -9 -6 -9 10 -1 11 -4 2 -15 -10 -11 -8 -15 6 -19 14
-4 13 -5 -4 -6 -19 -1 -23 4 -23 29 0 25 4 30 23 29 21 0 21 -1 2 -9z m111
-18 c11 -28 10 -29 -17 -28 -16 1 -29 2 -29 3 0 11 21 53 28 53 4 0 12 -13 18
-28z m97 21 c-7 -2 -14 -17 -14 -31 l-2 -27 -4 25 c-3 14 -10 28 -17 32 -6 4
3 7 19 7 17 0 24 -3 18 -6z m54 -40 c-3 -10 -5 -2 -5 17 0 19 2 27 5 18 2 -10
2 -26 0 -35z m93 27 c10 24 10 24 4 -5 -3 -16 -8 -32 -10 -34 -7 -7 -21 12
-28 39 l-7 25 15 -25 15 -25 11 25z m67 -27 c-3 -10 -5 -2 -5 17 0 19 2 27 5
18 2 -10 2 -26 0 -35z m96 40 c-7 -2 -14 -17 -14 -31 l-2 -27 -4 25 c-3 14
-10 28 -17 32 -6 4 3 7 19 7 17 0 24 -3 18 -6z m81 -4 c13 11 13 9 3 -18 -11
-31 -11 -31 -24 -8 -14 25 -17 49 -4 28 8 -12 12 -12 25 -2z"/>
<path d="M3952 3558 c-18 -23 -53 -142 -59 -200 l-6 -58 88 0 88 0 -7 58 c-8
64 -41 178 -57 199 -14 16 -33 17 -47 1z"/>
<path d="M2697 3223 c-7 -7 -10 -43 -3 -43 2 0 24 11 47 25 l44 25 -41 0 c-22
0 -44 -3 -47 -7z"/>
<path d="M3180 3132 c-32 -27 -35 -35 -35 -82 0 -44 4 -55 28 -76 41 -35 81
-32 123 10 44 44 47 92 7 136 -41 44 -80 48 -123 12z"/>
<path d="M2361 3112 c-54 -53 -48 -157 10 -206 17 -14 37 -26 44 -26 57 0 105
58 105 128 0 109 -93 170 -159 104z"/>
<path d="M1985 2985 c-22 -8 -45 -22 -52 -32 -20 -26 -16 -80 7 -103 25 -25
46 -25 88 0 31 19 32 22 32 85 0 73 -3 75 -75 50z"/>
<path d="M2440 2060 c0 -15 5 -20 18 -18 9 2 17 10 17 18 0 8 -8 16 -17 18
-13 2 -18 -3 -18 -18z"/>
<path d="M2650 2070 c0 -5 7 -10 15 -10 8 0 15 5 15 10 0 6 -7 10 -15 10 -8 0
-15 -4 -15 -10z"/>
<path d="M2910 2070 c0 -5 7 -10 15 -10 8 0 15 5 15 10 0 6 -7 10 -15 10 -8 0
-15 -4 -15 -10z"/>
</g>
</svg>
